<svg width="37" height="51" viewBox="0 0 37 51" fill="none" xmlns="http://www.w3.org/2000/svg">
<path d="M24.6465 2.1932C23.365 -0.872256 7.98695 -3.63116 3.93741 15.3236C3.27103 19.1043 3.93741 24.2134 9.93484 30.753C13.9844 29.4757 19.0079 24.1112 28.1322 25.9505C29.875 21.1479 25.6717 4.69665 24.6465 2.1932Z" fill="#501F23"/>
<path d="M7.11547 43.4746C7.11547 44.0366 7.11547 44.5475 7.06421 45.1095C7.01295 45.7737 6.96169 46.3868 6.85917 46.9488C6.80791 47.1532 6.80791 47.3575 6.75665 47.5108C6.60287 47.4597 6.44909 47.3575 6.34657 47.2554C5.98775 47.051 5.68019 46.8466 5.32137 46.6423C4.70624 46.2846 4.14238 45.8248 3.57852 45.4161C2.4508 44.5986 1.4256 43.6279 0.45166 42.6572C1.01552 40.7668 1.98946 39.2341 3.57852 37.9568C4.29616 37.3948 5.16759 36.8839 6.24405 36.4241C6.39783 36.373 6.55161 36.3219 6.65413 36.2197L6.80791 38.0079C6.80791 38.0079 7.16673 40.6135 7.11547 43.4746Z" fill="#FFC197"/>
<path d="M36.5897 42.6574C35.6158 43.6792 34.5393 44.5988 33.4628 45.4163C32.899 45.825 32.3351 46.2337 31.7713 46.5914C31.4124 46.8468 31.0536 47.0512 30.6948 47.2555L30.2335 47.511C30.1822 47.3066 30.1309 47.1534 30.1309 46.949C30.0284 46.3359 29.9772 45.7228 29.9259 45.1097C29.8746 44.5988 29.8746 44.139 29.8746 43.6792C29.8746 43.6281 29.8746 43.577 29.8746 43.577C29.8746 40.7159 30.1822 38.0592 30.1822 38.0592L30.336 36.271C30.4898 36.3221 30.6435 36.3732 30.7973 36.4754C30.7973 36.4754 30.7973 36.4754 30.8486 36.4754C31.8738 36.9352 32.7452 37.4461 33.4628 38.0081C35.0006 39.2343 35.9746 40.767 36.5897 42.6574Z" fill="#FFC197"/>
<path d="M27.9272 15.7324C30.4389 13.229 30.7978 17.0097 30.1314 18.849C29.0037 21.8633 26.5944 22.4253 23.6726 21.9655L27.9272 15.7324Z" fill="#F7996B"/>
<path d="M9.06325 15.7324C6.55151 13.229 6.19269 17.0097 6.85907 18.849C7.98679 21.8633 10.396 22.4253 13.3178 21.9655L9.06325 15.7324Z" fill="#F7996B"/>
<path d="M33.7707 40.5112C33.7707 44.2919 26.9019 47.3574 18.4439 47.3574C9.98603 47.3574 3.11719 44.2919 3.11719 40.5112C3.11719 38.6208 4.80877 36.9348 7.52555 35.7086C9.31965 34.8912 14.3944 33.7161 14.4457 32.9497C14.4457 32.7454 14.4457 32.2855 14.4457 31.6724C14.4969 29.9354 14.4969 27.2275 14.4969 27.2275H22.1859C22.1859 27.2275 22.2372 28.1472 22.2884 29.3223C22.3397 30.8039 22.4422 32.5921 22.4422 33.0519C22.4422 33.8694 27.4657 34.8912 29.2598 35.7086C32.0791 36.9348 33.7707 38.6208 33.7707 40.5112Z" fill="#FFC197"/>
<path d="M22.3394 29.2712C20.5965 32.4899 17.726 34.227 15.8806 33.3074C15.368 33.0519 14.8041 32.4388 14.4966 31.7746V31.6724C14.5478 29.9354 14.5478 27.2275 14.5478 27.2275H22.2369C22.2881 27.2275 22.2881 28.1472 22.3394 29.2712Z" fill="#F7996B"/>
<path d="M28.1836 17.725C28.1836 24.7245 21.7248 30.3956 18.4954 30.3956C15.266 30.3956 8.80725 24.7245 8.80725 17.725C8.80725 10.7256 9.47363 3.87939 18.4954 3.87939C27.5172 3.87939 28.1836 10.7256 28.1836 17.725Z" fill="#FFC197"/>
<path d="M24.6466 6.58706C24.0827 2.3976 20.8021 -0.00366813 17.2651 0.762695C12.2416 1.78451 1.57954 8.22197 8.80721 16.652C9.06351 7.55779 24.3903 10.1123 24.2877 7.04688L24.6466 6.58706Z" fill="#672528"/>
<path d="M20.289 1.58008C18.905 3.62371 19.5201 5.10535 20.6478 6.89353C17.2647 7.55771 11.7798 9.3459 10.0882 11.5428C9.26808 8.32408 12.5487 1.58008 20.289 1.58008Z" fill="#7F3830"/>
<path d="M37.0003 42.2486C36.8465 42.4019 36.744 42.5041 36.5902 42.6573C35.6162 43.6792 34.5398 44.5988 33.4633 45.4162C32.8995 45.825 32.3356 46.2337 31.7717 46.5913C31.4129 46.8468 31.0541 47.0512 30.6953 47.2555L30.2339 47.511C28.6449 48.3795 26.9533 49.0948 25.1592 49.6057L26.3894 46.8979L26.5432 46.5402C26.6457 46.4381 26.7482 46.2848 26.8508 46.1826C27.7734 45.263 28.8499 44.5988 29.6701 43.6281C29.7213 43.577 29.7213 43.577 29.7726 43.5259C29.7726 43.4748 29.8238 43.4748 29.8238 43.4237C29.8751 43.3726 29.8751 43.3726 29.8751 43.3215C29.9264 43.2704 29.9776 43.2193 29.9776 43.1172C30.0801 42.9639 30.1827 42.8106 30.2852 42.6062C30.3364 42.5041 30.3877 42.4019 30.4902 42.2997C30.4902 42.2997 30.4902 42.2486 30.5415 42.2486C30.5927 42.1464 30.644 42.0442 30.6953 41.9421C31.1053 41.2779 31.5667 40.4604 31.9768 39.7452C32.0793 39.5919 32.1305 39.4897 32.1818 39.3875C32.3356 39.1321 32.4894 38.8766 32.6431 38.6722C32.7457 38.519 32.8482 38.3657 32.9507 38.2635C32.9507 38.2635 32.9507 38.2124 33.002 38.2124C33.0532 38.1613 33.1045 38.1102 33.1045 38.0592C33.1557 38.0081 33.207 37.957 33.207 37.957C33.2583 37.9059 33.3095 37.9059 33.3095 37.9059L33.3608 37.8548C33.412 37.8037 33.4633 37.8037 33.4633 37.8037C34.0272 37.5993 34.5398 37.957 35.0524 38.519C35.1549 38.6212 35.2574 38.7744 35.3599 38.8766C35.4112 38.9788 35.4625 39.0299 35.5137 39.1321C35.565 39.2342 35.6675 39.3875 35.7188 39.4897C35.8213 39.6941 35.9238 39.8984 36.0263 40.1028C36.1801 40.4604 36.3851 40.8692 36.5389 41.329C36.5902 41.4822 36.6414 41.5844 36.6927 41.7377C36.8977 41.9421 36.949 42.0953 37.0003 42.2486Z" fill="url(#paint0_linear_1_3413)"/>
<path d="M33.4633 45.4159C32.8994 45.8246 32.3356 46.2333 31.7717 46.591C31.4129 46.8464 31.0541 47.0508 30.6953 47.2551L30.2339 47.5106C28.6449 48.3792 26.9533 49.0944 25.1592 49.6053L26.3894 46.8975L26.5432 46.5399C26.6457 46.4377 26.7482 46.2844 26.8508 46.1822C27.7734 45.2626 28.8499 44.5984 29.6701 43.6277C29.7213 43.5766 29.7213 43.5766 29.7726 43.5255C29.7726 43.4744 29.8238 43.4744 29.8238 43.4233C29.8751 43.3722 29.8751 43.3722 29.8751 43.3212C29.9264 43.2701 29.9776 43.219 29.9776 43.1168C30.0801 42.9635 30.1827 42.8102 30.2852 42.6059C30.3364 42.5037 30.3877 42.4015 30.4902 42.2993C30.4902 42.2993 30.4902 42.2482 30.5415 42.2482C30.5927 42.1461 30.644 42.0439 30.6953 41.9417C31.1053 41.2775 31.5667 40.4601 31.9768 39.7448C32.0793 39.5915 32.1305 39.4893 32.1818 39.3871C32.3356 39.1317 32.4894 38.8762 32.6431 38.6719C32.5919 38.8251 32.5919 38.9784 32.5919 39.1828C32.5406 39.4382 32.5406 39.6937 32.5406 39.8981C32.4894 40.9199 32.5406 41.8906 32.7457 42.8613C32.7457 43.0146 32.7969 43.1679 32.8482 43.3212C32.8994 43.5255 32.9507 43.7299 33.002 43.9342V43.9853C33.0532 44.1897 33.1045 44.3941 33.207 44.6495C33.2583 45.0072 33.3608 45.2115 33.4633 45.4159Z" fill="url(#paint1_linear_1_3413)"/>
<path d="M11.8313 49.6565C10.0885 49.1456 8.39689 48.4303 6.75657 47.5617C6.60279 47.5107 6.44901 47.4085 6.34649 47.3063C5.98767 47.1019 5.68011 46.8976 5.32129 46.6932C4.70617 46.3356 4.14231 45.8757 3.57845 45.467C2.45073 44.6496 1.42553 43.6788 0.451584 42.7081C0.349064 42.5548 0.195284 42.4527 0.0415039 42.2994C0.092764 42.1972 0.144024 42.0439 0.195284 41.9417C0.400324 41.4308 0.554104 40.971 0.759145 40.6134C0.810405 40.4601 0.861665 40.3579 0.912925 40.2557C1.42553 38.8252 2.55325 37.3436 3.57845 37.9567C3.62971 37.9567 3.68097 38.0077 3.68097 38.0077C3.73223 38.0588 3.83475 38.161 3.93727 38.3143C4.19357 38.6719 4.55239 39.2339 4.91121 39.847C4.96247 39.8981 5.01373 40.0003 5.01373 40.0514C5.06499 40.1025 5.06499 40.1536 5.11625 40.2557C5.16751 40.3579 5.21877 40.4601 5.27003 40.5112C5.83389 41.4819 6.39775 42.5037 6.80783 43.1168C6.85909 43.219 6.96161 43.3212 7.01287 43.4234C7.01287 43.4745 7.06413 43.4745 7.06413 43.4745C7.06413 43.5256 7.11539 43.5256 7.11539 43.5767C7.98681 44.5985 9.11453 45.2627 10.0372 46.2334C10.1397 46.3356 10.2423 46.4377 10.3448 46.591L10.4986 46.9487L11.8313 49.6565Z" fill="url(#paint2_linear_1_3413)"/>
<path d="M11.8315 49.6567C10.0886 49.1458 8.39706 48.4305 6.75674 47.562C6.60296 47.5109 6.44918 47.4087 6.34666 47.3065C5.98784 47.1021 5.68028 46.8978 5.32145 46.6934C4.70633 46.3358 4.14247 45.876 3.57861 45.4672C4.24499 45.1096 4.91137 44.6498 5.57776 44.19C5.93658 43.9345 6.2954 43.6791 6.65422 43.4236C6.70548 43.3725 6.75674 43.3725 6.808 43.3214C6.85926 43.2703 6.91052 43.2703 6.96178 43.2192C7.01304 43.3214 7.11556 43.4236 7.16682 43.5258C7.16682 43.5769 7.21808 43.5769 7.21808 43.5769C7.21808 43.628 7.26934 43.628 7.26934 43.6791C8.14076 44.7009 9.26848 45.3651 10.1912 46.3358C10.2937 46.438 10.3962 46.5401 10.4987 46.6934L10.6525 47.0511L11.8315 49.6567Z" fill="url(#paint3_linear_1_3413)"/>
<path d="M31.7715 46.5912C31.4127 46.8467 31.0538 47.0511 30.695 47.2554L30.2337 47.5109C28.6446 48.3794 26.953 49.0947 25.1589 49.6056C23.006 50.2187 20.8018 50.5763 18.4951 50.5763C16.1884 50.5763 13.933 50.2187 11.8313 49.6056C10.0885 49.0947 8.39689 48.3794 6.75657 47.5109C6.60279 47.4598 6.44901 47.3576 6.34649 47.2554C5.98767 47.0511 5.68011 46.8467 5.32129 46.6423C5.47507 45.9271 5.73137 45.1607 6.03893 44.4965C6.19271 44.0878 6.39775 43.7301 6.60279 43.3725C6.65405 43.3214 6.65405 43.2703 6.70531 43.2192L6.75657 43.2703C6.85909 43.3214 6.96161 43.4236 7.11539 43.4747C7.11539 43.4747 7.16665 43.4747 7.16665 43.5258C9.98595 44.9563 14.0868 45.876 18.7002 45.876C23.0573 45.876 26.953 45.0585 29.7211 43.7812C29.7723 43.7812 29.8236 43.7301 29.8749 43.7301C30.0799 43.628 30.2337 43.5258 30.4387 43.4236C30.6438 43.7812 30.8488 44.1389 31.0538 44.5476C31.3101 45.1607 31.6177 45.876 31.7715 46.5912Z" fill="url(#paint4_linear_1_3413)"/>
<path d="M19.8276 21.8119C19.8276 22.2207 19.2125 22.5272 18.4949 22.5272C17.7772 22.5272 17.1621 22.2207 17.1621 21.8119C17.1621 21.4032 17.7772 21.5565 18.4949 21.5565C19.2125 21.5565 19.8276 21.4543 19.8276 21.8119Z" fill="#F7996B"/>
<path d="M30.7976 36.4243C29.9262 38.0592 7.06422 38.0592 6.14154 36.4243C6.14154 36.4243 4.55248 36.6798 3.16846 38.2636C3.83484 39.6941 7.37178 44.701 10.2423 46.898C13.1129 49.0949 18.444 49.4525 18.444 49.4525C18.444 49.4525 18.444 49.4525 18.4952 49.4014C18.5465 49.4525 18.5465 49.4525 18.5465 49.4525C18.5465 49.4525 23.8775 49.0949 26.7481 46.898C29.6186 44.701 33.1556 39.6941 33.822 38.2636C32.3867 36.6798 30.7976 36.4243 30.7976 36.4243Z" fill="url(#paint5_linear_1_3413)"/>
<path d="M20.5968 18.2867C21.2119 16.3963 23.6724 14.5571 25.8766 15.5789C27.2606 16.192 26.953 17.6225 26.0816 18.2356C24.6976 19.1553 22.6985 19.0531 21.1094 18.5422L20.5968 18.2867Z" fill="#501F23"/>
<path d="M21.1095 18.3379C22.3397 19.9217 25.6716 19.564 26.0305 18.2868C26.133 17.878 25.9279 17.3671 25.7742 17.2139L21.1095 18.3379Z" fill="#501F23"/>
<path d="M22.9033 19.1552C22.852 19.1552 22.852 19.1552 22.8008 19.1552C22.0319 19.053 20.8529 18.3889 20.8529 18.3889C21.0067 17.878 21.4168 17.316 21.9806 16.9072C21.9294 17.1116 21.8781 17.316 21.8781 17.5203C21.8781 18.2867 22.2882 18.8998 22.9033 19.1552Z" fill="#EAEDEF"/>
<path d="M26.2867 17.6735C26.1329 18.3377 25.5691 18.7975 24.8514 19.0019C25.3128 18.6443 25.5691 18.1333 25.5691 17.5203C25.5691 17.0093 25.364 16.5495 25.0052 16.1919C25.8766 16.4473 26.3892 17.0093 26.2867 17.6735Z" fill="#EAEDEF"/>
<path d="M25.5688 17.5203C25.5688 18.1334 25.2612 18.6443 24.8511 19.002C24.236 19.2063 23.5696 19.2574 22.9545 19.1552C22.3394 18.8487 21.9293 18.2356 21.9293 17.5203C21.9293 17.316 21.9806 17.0605 22.0318 16.9072C22.3907 16.6518 22.852 16.3963 23.3133 16.2941C23.9797 16.0898 24.5948 16.0898 25.0562 16.243C25.3637 16.5496 25.5688 17.0094 25.5688 17.5203Z" fill="#2073A5"/>
<path d="M25.979 17.6226C25.979 17.8781 25.7739 18.0825 25.5176 18.0825C25.2613 18.0825 25.0563 17.8781 25.0563 17.6226C25.0563 17.3672 25.2613 17.1628 25.5176 17.1628C25.7739 17.1117 25.979 17.3672 25.979 17.6226Z" fill="white"/>
<path d="M16.3424 18.2867C15.7273 16.3963 13.2668 14.5571 11.0114 15.5789C9.62735 16.192 9.93491 17.6225 10.8063 18.2356C12.1903 19.1553 14.1895 19.0531 15.7786 18.5422L16.3424 18.2867Z" fill="#501F23"/>
<path d="M15.8809 18.3379C14.6507 19.9217 11.3188 19.564 10.96 18.2868C10.8574 17.878 11.0625 17.3671 11.2163 17.2139L15.8809 18.3379Z" fill="#501F23"/>
<path d="M12.1391 19.0021C11.4214 18.7977 10.8576 18.3379 10.7038 17.6737C10.6013 17.0095 11.0626 16.4475 11.934 16.2432C11.5752 16.6008 11.3702 17.0606 11.3702 17.5715C11.4214 18.1335 11.6777 18.6955 12.1391 19.0021Z" fill="#EAEDEF"/>
<path d="M16.1374 18.3889C16.1374 18.3889 15.0097 19.053 14.1896 19.1552C14.1383 19.1552 14.1383 19.1552 14.087 19.1552C14.7022 18.8487 15.1122 18.2356 15.1122 17.5203C15.1122 17.316 15.061 17.0605 15.0097 16.9072C15.5223 17.316 15.9837 17.878 16.1374 18.3889Z" fill="#EAEDEF"/>
<path d="M15.061 17.5207C15.061 18.2359 14.6509 18.849 14.0358 19.1556C13.4207 19.2067 12.703 19.1556 12.1392 19.0023C11.6778 18.6447 11.4215 18.1338 11.4215 17.5207C11.4215 17.0098 11.6265 16.5499 11.9854 16.1923C12.4467 16.0901 13.0618 16.0901 13.7282 16.2434C14.1896 16.3456 14.5996 16.601 15.0097 16.8565C15.061 17.1119 15.061 17.3163 15.061 17.5207Z" fill="#2073A5"/>
<path d="M15.4705 17.6226C15.4705 17.8781 15.2655 18.0825 15.0092 18.0825C14.7529 18.0825 14.5479 17.8781 14.5479 17.6226C14.5479 17.3672 14.7529 17.1628 15.0092 17.1628C15.2655 17.1117 15.4705 17.3672 15.4705 17.6226Z" fill="white"/>
<path d="M26.9021 14.5063C26.1844 13.6888 25.2617 13.0758 24.134 12.9225C23.0575 12.7692 22.0323 13.3823 21.0071 13.4334C20.2895 13.4845 20.4433 14.6085 21.1609 14.5574C22.0836 14.5063 22.955 14.0465 23.929 13.9954C24.9542 13.9443 25.9794 14.1998 26.9021 14.7107C26.9533 14.7618 26.9533 14.5574 26.9021 14.5063Z" fill="#501F23"/>
<path d="M9.78087 13.6888C10.6523 12.9735 11.6262 12.5137 12.754 12.5137C13.8304 12.5137 14.7531 13.2289 15.7783 13.4844C16.4447 13.6377 16.1884 14.7617 15.4707 14.5573C14.5481 14.3529 13.7792 13.7909 12.8052 13.5866C11.78 13.3822 10.7548 13.4844 9.78087 13.842C9.67835 13.9442 9.72961 13.7399 9.78087 13.6888Z" fill="#501F23"/>
<path d="M27.722 17.7761C27.8758 21.3525 26.2867 23.907 25.1077 26.0529C25.6716 26.666 26.9531 27.4323 28.2858 27.79C28.8497 27.9432 36.2312 13.3312 28.901 5.51431C26.0817 2.49995 24.6464 2.8065 22.7498 5.30995L23.4674 6.43395C23.0573 10.0614 27.4144 11.9518 27.722 17.7761Z" fill="#672528"/>
<path d="M27.2095 5.92285C27.107 7.25122 26.3893 7.71103 25.3129 8.06867C26.5431 9.44812 28.2859 12.0538 28.2859 13.5354C29.67 12.4625 30.5414 8.4774 27.2095 5.92285Z" fill="#7F3830"/>
<path d="M18.495 24.4689C17.2647 24.52 15.7782 24.8776 14.958 24.3667C15.6756 25.4396 16.8034 26.3082 18.2386 26.768C18.3412 26.768 18.4437 26.768 18.495 26.7169C18.5975 26.7169 18.7 26.7169 18.7513 26.768C20.1353 26.3082 21.263 25.4396 22.0319 24.3667C21.263 24.9287 19.7252 24.52 18.495 24.4689Z" fill="#9C002A"/>
<path d="M18.5973 25.6952C17.2132 25.6952 15.1628 24.7245 15.1628 24.7245C15.983 25.7974 17.162 27.0747 18.4947 27.0236H18.5973C19.93 27.0747 21.3653 25.4398 21.8266 24.7245C21.8266 24.6734 19.9813 25.6952 18.5973 25.6952Z" fill="#C70239"/>
<defs>
<linearGradient id="paint0_linear_1_3413" x1="31.0797" y1="37.7456" x2="31.0797" y2="49.6057" gradientUnits="userSpaceOnUse">
<stop stop-color="#FF8248"/>
<stop offset="1" stop-color="#E64683"/>
</linearGradient>
<linearGradient id="paint1_linear_1_3413" x1="29.3112" y1="38.6719" x2="29.3112" y2="49.6053" gradientUnits="userSpaceOnUse">
<stop stop-color="#FF8248"/>
<stop offset="1" stop-color="#E64683"/>
</linearGradient>
<linearGradient id="paint2_linear_1_3413" x1="5.93641" y1="37.8145" x2="5.93641" y2="49.6565" gradientUnits="userSpaceOnUse">
<stop stop-color="#FF8248"/>
<stop offset="1" stop-color="#E64683"/>
</linearGradient>
<linearGradient id="paint3_linear_1_3413" x1="7.70505" y1="43.2192" x2="7.70505" y2="49.6567" gradientUnits="userSpaceOnUse">
<stop stop-color="#FF8248"/>
<stop offset="1" stop-color="#E64683"/>
</linearGradient>
<linearGradient id="paint4_linear_1_3413" x1="18.5464" y1="43.2192" x2="18.5464" y2="50.5763" gradientUnits="userSpaceOnUse">
<stop stop-color="#FF8248"/>
<stop offset="1" stop-color="#E64683"/>
</linearGradient>
<linearGradient id="paint5_linear_1_3413" x1="18.4952" y1="36.4243" x2="18.4952" y2="49.4525" gradientUnits="userSpaceOnUse">
<stop stop-color="#FF8248"/>
<stop offset="1" stop-color="#E64683"/>
</linearGradient>
</defs>
</svg>
