<svg width="18" height="19" viewBox="0 0 18 19" fill="none" xmlns="http://www.w3.org/2000/svg">
<path d="M12.75 7.25C12.75 10.1525 10.23 12.5 7.125 12.5L6.42751 13.34L6.015 13.835C5.6625 14.255 4.9875 14.165 4.755 13.6625L3.75 11.45C2.385 10.49 1.5 8.9675 1.5 7.25C1.5 4.3475 4.02 2 7.125 2C9.39 2 11.3475 3.25251 12.225 5.05251C12.5625 5.72001 12.75 6.4625 12.75 7.25Z" stroke="#212121" stroke-linecap="round" stroke-linejoin="round"/>
<path d="M16.5 10.145C16.5 11.8625 15.615 13.385 14.25 14.345L13.245 16.5575C13.0125 17.06 12.3375 17.1575 11.985 16.73L10.875 15.395C9.05998 15.395 7.43999 14.5925 6.42749 13.34L7.12498 12.5C10.23 12.5 12.75 10.1525 12.75 7.24999C12.75 6.46249 12.5625 5.71999 12.225 5.05249C14.6775 5.61499 16.5 7.68497 16.5 10.145Z" stroke="#212121" stroke-linecap="round" stroke-linejoin="round"/>
<path d="M5.25 7.25H9" stroke="#212121" stroke-linecap="round" stroke-linejoin="round"/>
</svg>
