<svg width="37" height="36" viewBox="0 0 37 36" fill="none" xmlns="http://www.w3.org/2000/svg">
<path d="M27.0755 27C32.0599 22.0294 32.0599 13.9706 27.0755 9C22.091 4.02944 14.0096 4.02944 9.02516 9C4.0407 13.9706 4.0407 22.0294 9.02516 27C14.0096 31.9706 22.091 31.9706 27.0755 27Z" fill="white"/>
<path d="M18.0499 28.8626C24.066 28.8626 28.943 23.9992 28.943 17.9999C28.943 12.0006 24.066 7.13721 18.0499 7.13721C12.0339 7.13721 7.15686 12.0006 7.15686 17.9999C7.15686 23.9992 12.0339 28.8626 18.0499 28.8626Z" fill="url(#paint0_linear_1_3379)"/>
<path d="M18.0499 29.4064C11.7437 29.4064 6.61145 24.2885 6.61145 17.9999C6.61145 11.7112 11.7437 6.59326 18.0499 6.59326C24.3561 6.59326 29.4884 11.7112 29.4884 17.9999C29.4884 24.2885 24.3582 29.4064 18.0499 29.4064ZM18.0499 7.13714C12.0441 7.13714 7.15685 12.0108 7.15685 17.9999C7.15685 23.9889 12.0441 28.8626 18.0499 28.8626C24.0557 28.8626 28.943 23.9889 28.943 17.9999C28.943 12.0087 24.0578 7.13714 18.0499 7.13714Z" fill="white"/>
<path d="M18.05 24.6217C21.7175 24.6217 24.6906 21.6569 24.6906 17.9996C24.6906 14.3423 21.7175 11.3774 18.05 11.3774C14.3824 11.3774 11.4093 14.3423 11.4093 17.9996C11.4093 21.6569 14.3824 24.6217 18.05 24.6217Z" fill="url(#paint1_linear_1_3379)"/>
<path d="M18.05 25.1656C14.0873 25.1656 10.8639 21.9511 10.8639 17.9995C10.8639 14.0479 14.0873 10.8335 18.05 10.8335C22.0126 10.8335 25.236 14.0479 25.236 17.9995C25.236 21.9511 22.0126 25.1656 18.05 25.1656ZM18.05 11.9213C14.6881 11.9213 11.9547 14.647 11.9547 17.9995C11.9547 21.352 14.6881 24.0778 18.05 24.0778C21.4118 24.0778 24.1452 21.352 24.1452 17.9995C24.1452 14.647 21.4118 11.9213 18.05 11.9213Z" fill="white"/>
<path d="M18.0499 20.566C19.4713 20.566 20.6235 19.4169 20.6235 17.9995C20.6235 16.5821 19.4713 15.4331 18.0499 15.4331C16.6286 15.4331 15.4763 16.5821 15.4763 17.9995C15.4763 19.4169 16.6286 20.566 18.0499 20.566Z" fill="url(#paint2_linear_1_3379)"/>
<path d="M18.0499 21.1078C16.3306 21.1078 14.9309 19.712 14.9309 17.9975C14.9309 16.283 16.3306 14.8872 18.0499 14.8872C19.7692 14.8872 21.1689 16.283 21.1689 17.9975C21.1689 19.712 19.7692 21.1078 18.0499 21.1078ZM18.0499 15.9771C16.9314 15.9771 16.0217 16.8843 16.0217 17.9996C16.0217 19.115 16.9314 20.0222 18.0499 20.0222C19.1684 20.0222 20.0781 19.115 20.0781 17.9996C20.0781 16.8843 19.1684 15.9771 18.0499 15.9771Z" fill="white"/>
<path d="M33.5235 2.52881L33.8665 2.87298L20.8408 15.8623L20.4978 15.5182L33.5235 2.52881Z" fill="url(#paint3_linear_1_3379)"/>
<path d="M20.7407 14.6915C20.9388 14.4939 21.8677 15.4223 21.6717 15.6199L18.2204 18.3244C18.0925 18.4243 17.9285 18.2607 18.0286 18.1332L20.7407 14.6915Z" fill="url(#paint4_linear_1_3379)"/>
<path d="M33.8601 2.87891L35.6134 3.05312L33.2081 5.45171C32.4199 6.23778 31.3205 6.6287 30.2106 6.52035L33.8601 2.87891Z" fill="#574AFB"/>
<path d="M33.515 2.53706L33.3424 0.788574L30.9371 3.18717C30.1488 3.97324 29.7568 5.0695 29.8655 6.17638L33.515 2.53706Z" fill="#574AFB"/>
<defs>
<linearGradient id="paint0_linear_1_3379" x1="18.0499" y1="7.13721" x2="18.0499" y2="28.8626" gradientUnits="userSpaceOnUse">
<stop stop-color="#FF8248"/>
<stop offset="1" stop-color="#E64683"/>
</linearGradient>
<linearGradient id="paint1_linear_1_3379" x1="18.05" y1="11.3774" x2="18.05" y2="24.6217" gradientUnits="userSpaceOnUse">
<stop stop-color="#FF8248"/>
<stop offset="1" stop-color="#E64683"/>
</linearGradient>
<linearGradient id="paint2_linear_1_3379" x1="18.0499" y1="15.4331" x2="18.0499" y2="20.566" gradientUnits="userSpaceOnUse">
<stop stop-color="#FF8248"/>
<stop offset="1" stop-color="#E64683"/>
</linearGradient>
<linearGradient id="paint3_linear_1_3379" x1="14.3858" y1="16.9148" x2="28.2965" y2="8.47618" gradientUnits="userSpaceOnUse">
<stop stop-color="#09005D"/>
<stop offset="1" stop-color="#1A0F91"/>
</linearGradient>
<linearGradient id="paint4_linear_1_3379" x1="19.0823" y1="16.9111" x2="28.9213" y2="8.72721" gradientUnits="userSpaceOnUse">
<stop stop-color="#09005D"/>
<stop offset="1" stop-color="#1A0F91"/>
</linearGradient>
</defs>
</svg>
