<svg width="224" height="176" viewBox="0 0 224 176" fill="none" xmlns="http://www.w3.org/2000/svg">
<path d="M223.704 175.191H0.295515C0.217139 175.191 0.141974 175.15 0.086554 175.079C0.0311343 175.008 0 174.911 0 174.81C0 174.709 0.0311343 174.612 0.086554 174.54C0.141974 174.469 0.217139 174.429 0.295515 174.429H223.704C223.783 174.429 223.858 174.469 223.913 174.54C223.969 174.612 224 174.709 224 174.81C224 174.911 223.969 175.008 223.913 175.079C223.858 175.15 223.783 175.191 223.704 175.191Z" fill="#212121" fill-opacity="0.3"/>
<path d="M100.286 137.905C138.367 137.905 169.238 107.034 169.238 68.9524C169.238 30.871 138.367 0 100.286 0C62.2044 0 31.3333 30.871 31.3333 68.9524C31.3333 107.034 62.2044 137.905 100.286 137.905Z" fill="url(#paint0_linear_1_3190)" fill-opacity="0.15"/>
<path d="M95.856 83.7458C101.818 80.4544 109.238 81.115 115.662 83.3653C122.086 85.6156 127.907 89.3023 134.145 92.0292C153.207 100.362 176.182 99.0182 194.153 88.5198C195.853 92.4908 194.029 97.033 192.027 100.859C190.024 104.684 187.741 108.831 188.566 113.073C189.621 118.502 195.287 121.757 197.583 126.784C199.763 131.557 198.593 137.161 196.921 142.136C195.249 147.111 193.079 152.123 193.363 157.366C193.647 162.609 197.439 168.153 202.667 168.157C194.92 169.366 187.021 170.576 179.279 169.337C171.536 168.098 163.835 163.985 160.24 156.987C158.444 153.489 157.751 149.467 155.687 146.121C152.173 140.422 145.427 137.742 139.063 135.722C132.699 133.702 125.888 131.756 121.407 126.787C117.138 122.053 115.785 115.458 113.523 109.488C109.714 99.4945 103.097 90.827 94.4763 84.5385" fill="url(#paint1_linear_1_3190)"/>
<path d="M105.143 19.2993V43.8435C105.143 43.9229 105.103 43.9991 105.031 44.0552C104.96 44.1113 104.863 44.1429 104.762 44.1429C104.661 44.1429 104.564 44.1113 104.493 44.0552C104.421 43.9991 104.381 43.9229 104.381 43.8435V19.2993C104.381 19.2199 104.421 19.1438 104.493 19.0877C104.564 19.0315 104.661 19 104.762 19C104.863 19 104.96 19.0315 105.031 19.0877C105.103 19.1438 105.143 19.2199 105.143 19.2993Z" fill="url(#paint2_linear_1_3190)"/>
<path d="M130.959 39.3254L122.42 47.8645C122.363 47.9209 122.287 47.9525 122.207 47.9524C122.127 47.9523 122.05 47.9205 121.993 47.864C121.937 47.8075 121.905 47.7308 121.905 47.6509C121.905 47.5709 121.937 47.4942 121.993 47.4375L130.532 38.8985C130.56 38.8703 130.593 38.848 130.63 38.8327C130.667 38.8175 130.706 38.8096 130.746 38.8096C130.785 38.8095 130.825 38.8173 130.861 38.8325C130.898 38.8477 130.931 38.8699 130.959 38.898C130.988 38.9261 131.01 38.9594 131.025 38.9961C131.04 39.0328 131.048 39.0721 131.048 39.1118C131.048 39.1515 131.04 39.1908 131.025 39.2275C131.009 39.2641 130.987 39.2974 130.959 39.3254Z" fill="url(#paint3_linear_1_3190)"/>
<path d="M78.5652 39.3254L87.1038 47.864C87.1604 47.9206 87.2372 47.9524 87.3173 47.9524C87.3974 47.9524 87.4741 47.9206 87.5308 47.864C87.5874 47.8074 87.6192 47.7306 87.6192 47.6505C87.6192 47.5705 87.5874 47.4937 87.5308 47.4371L78.9922 38.8985C78.9642 38.8703 78.9309 38.848 78.8942 38.8327C78.8576 38.8175 78.8183 38.8096 78.7786 38.8096C78.7389 38.8095 78.6995 38.8173 78.6628 38.8325C78.6262 38.8477 78.5928 38.8699 78.5647 38.898C78.5367 38.9261 78.5144 38.9594 78.4992 38.9961C78.4841 39.0328 78.4763 39.0721 78.4763 39.1118C78.4764 39.1515 78.4842 39.1908 78.4995 39.2274C78.5148 39.2641 78.5371 39.2974 78.5652 39.3254Z" fill="url(#paint4_linear_1_3190)"/>
<path d="M69.0706 161.189L65.9308 159.739L70.0211 146.923L74.6554 149.063L69.0706 161.189Z" fill="#FFB6B6"/>
<path d="M67.6709 164.52L58.015 160.063L58.0713 159.94C58.5309 158.942 59.3677 158.168 60.3974 157.788C61.4272 157.407 62.5657 157.452 63.5625 157.912L63.5627 157.912L65.9435 157.387L68.6173 160.246L69.4602 160.635L67.6709 164.52Z" fill="#212121"/>
<path d="M108.413 168.154L105.121 169.213L99.476 157.002L104.335 155.44L108.413 168.154Z" fill="#FFB6B6"/>
<path d="M109.632 171.556L99.5078 174.811L99.4667 174.683C99.1312 173.636 99.2245 172.499 99.7261 171.522C100.228 170.544 101.097 169.806 102.142 169.47L102.142 169.47L103.54 167.471L107.441 167.766L108.325 167.482L109.632 171.556Z" fill="#212121"/>
<path d="M72.6918 154.474L67.8007 152.842L73.1766 129.147L88.2076 114.063L96.5618 109.97H109.857C109.857 109.97 114.363 114.767 113.283 117.53C112.955 118.369 112.422 123.8 111.204 124.343C109.986 124.887 111.54 125.955 110.661 126.237C109.782 126.519 110.261 127.643 110.058 128.362C108.103 135.274 103.872 143.251 103.872 143.251L105.503 158.351L99.5926 162.024L95.7493 142.855L97.9663 123.512C97.9663 123.512 87.0559 128.844 87.3123 130.028C87.5687 131.212 85.308 130.343 85.4194 131.186C85.5308 132.028 83.5919 132.303 83.5919 132.303L81.8429 133.373L72.6918 154.474Z" fill="#212121"/>
<path d="M80.3507 60.7746C80.306 61.0757 80.3272 61.3829 80.4128 61.6749C80.4983 61.9669 80.6462 62.2367 80.8463 62.4658C81.0463 62.6949 81.2937 62.8777 81.5713 63.0015C81.849 63.1254 82.1502 63.1874 82.4542 63.1833L86.683 72.761L89.6179 72.2396L84.5121 60.9008C84.4675 60.389 84.2368 59.9116 83.8639 59.559C83.491 59.2063 83.0017 59.0029 82.4887 58.9874C81.9758 58.9718 81.4748 59.1452 81.0808 59.4746C80.6867 59.804 80.427 60.2665 80.3507 60.7746Z" fill="#FFB6B6"/>
<path d="M109.544 84.4228L108.16 89.6931C108.095 89.939 107.98 90.1686 107.822 90.3673C107.663 90.566 107.465 90.7293 107.24 90.8467C107.015 90.9642 106.768 91.0332 106.514 91.0493C106.261 91.0654 106.007 91.0283 105.769 90.9404L90.6429 85.3557L82 66.5L87 64.5L93.5862 78.3958C97.1564 77.6041 103.645 81.486 109.544 84.4228Z" fill="#212121"/>
<path d="M105.949 75.8679L101.834 75.5063L95.7205 81.6279L94.7015 83.8724C92.5617 85.0136 94.548 84.1025 94.7015 86.5251L95.1091 102.237C95.1091 102.237 90.3325 107.311 92.0128 108.683C93.693 110.054 90.7137 113.451 94.3037 111.741C97.8937 110.032 114.877 117.949 114.877 117.949C114.877 117.949 115.5 113.441 113.864 113.246C112.228 113.052 111.616 113.274 113.451 111.327C115.285 109.379 112.635 107.542 112.635 107.542L112.558 93.2996L112.83 85.5299C112.88 84.078 112.45 82.6501 111.606 81.4686C110.761 80.2872 109.55 79.4187 108.161 78.9984L107.816 78.8939L105.949 75.8679Z" fill="#212121"/>
<path d="M103.694 74.3839C100.306 74.3839 97.5585 71.6335 97.5585 68.2406C97.5585 64.8477 100.306 62.0972 103.694 62.0972C107.083 62.0972 109.83 64.8477 109.83 68.2406C109.83 71.6335 107.083 74.3839 103.694 74.3839Z" fill="#FFB6B6"/>
<path d="M111.004 67.5671C111.038 69.4389 109.44 74.5655 105.039 74.3486C104.018 74.2953 106.962 70.573 104.872 70.0557C104.828 70.045 104.78 70.0362 104.729 70.0291C104.674 70.0217 104.619 70.0086 104.567 69.9899C103.626 69.6522 104.954 67.7377 104.196 67.1849C102.949 66.8257 101.674 66.5706 100.384 66.4223C100.354 66.1034 100.265 65.7929 100.122 65.5068C100.125 65.8197 100.04 66.1271 99.8765 66.3939C99.2853 66.3814 98.79 66.4472 98.5148 66.6516C97.2507 67.5884 97.8206 65.1229 96.7394 63.9852C96.9152 63.843 97.9556 64.1345 98.2787 64.2821C98.1741 64.1114 98.1002 63.9237 98.0603 63.7275C98.0097 63.5124 98.026 63.287 98.1069 63.0815C98.1878 62.8759 98.3295 62.7 98.513 62.5773C98.9107 62.3569 99.4167 62.492 99.841 62.332C99.894 62.3067 99.9399 62.2686 99.9746 62.2211C100.009 62.1736 100.032 62.1183 100.04 62.0601C100.072 61.9229 100.133 61.7945 100.22 61.6839C100.308 61.5733 100.418 61.4834 100.544 61.4204C100.67 61.3574 100.808 61.323 100.948 61.3196C101.089 61.3161 101.228 61.3438 101.357 61.4006C101.407 61.4284 101.462 61.4436 101.519 61.445C101.814 61.4266 102.106 61.3723 102.389 61.2832C102.071 61.1356 101.765 60.9632 101.474 60.7677C101.416 60.7269 101.355 60.686 101.297 60.6433C101.794 60.19 102.532 60.0585 103.202 60.1527C103.907 60.2522 104.56 60.5669 105.203 60.8762C105.574 61.0575 105.944 61.2382 106.314 61.4183C107.099 61.797 107.805 63.1231 108.576 62.716C109.877 62.0298 110.971 65.697 111.004 67.5671Z" fill="#212121"/>
<path d="M66.1494 85.2765C66.32 85.5284 66.5432 85.7403 66.8036 85.8974C67.064 86.0545 67.3554 86.1531 67.6576 86.1864C67.9598 86.2196 68.2656 86.1868 68.5538 86.0901C68.8421 85.9933 69.1059 85.8351 69.3271 85.6263L78.9158 89.8164L80.7255 87.4458L69.3004 82.5524C68.9216 82.2058 68.429 82.0104 67.9159 82.0031C67.4028 81.9959 66.9049 82.1773 66.5165 82.5131C66.1281 82.8489 65.8762 83.3157 65.8086 83.825C65.7409 84.3343 65.8622 84.8507 66.1494 85.2765Z" fill="#FFB6B6"/>
<path d="M107.106 87.4585L108.118 92.813C108.165 93.0628 108.16 93.3197 108.102 93.5673C108.044 93.8148 107.935 94.0476 107.782 94.2505C107.629 94.4534 107.435 94.6221 107.214 94.7456C106.992 94.8692 106.746 94.9449 106.493 94.968L90.4385 96.4312L72.0804 87.3411L73.6479 83.8828L90.1101 88.8803C92.8309 86.5897 100.479 87.3392 107.106 87.4585Z" fill="#212121"/>
<defs>
<linearGradient id="paint0_linear_1_3190" x1="100.286" y1="0" x2="100.286" y2="137.905" gradientUnits="userSpaceOnUse">
<stop stop-color="#FF8248"/>
<stop offset="1" stop-color="#E64683"/>
</linearGradient>
<linearGradient id="paint1_linear_1_3190" x1="148.571" y1="81.4761" x2="148.571" y2="169.857" gradientUnits="userSpaceOnUse">
<stop stop-color="#FF8248"/>
<stop offset="1" stop-color="#E64683"/>
</linearGradient>
<linearGradient id="paint2_linear_1_3190" x1="104.762" y1="19" x2="104.762" y2="44.1429" gradientUnits="userSpaceOnUse">
<stop stop-color="#FF8248"/>
<stop offset="1" stop-color="#E64683"/>
</linearGradient>
<linearGradient id="paint3_linear_1_3190" x1="126.476" y1="38.8096" x2="126.476" y2="47.9524" gradientUnits="userSpaceOnUse">
<stop stop-color="#FF8248"/>
<stop offset="1" stop-color="#E64683"/>
</linearGradient>
<linearGradient id="paint4_linear_1_3190" x1="83.0477" y1="38.8096" x2="83.0477" y2="47.9524" gradientUnits="userSpaceOnUse">
<stop stop-color="#FF8248"/>
<stop offset="1" stop-color="#E64683"/>
</linearGradient>
</defs>
</svg>
