<svg width="26" height="26" viewBox="0 0 26 26" fill="none" xmlns="http://www.w3.org/2000/svg">
<rect width="26" height="26" rx="6" fill="#212121"/>
<path d="M13.7737 13C13.7737 12.5726 13.4272 12.2262 12.9999 12.2262C12.5725 12.2262 12.2261 12.5726 12.2261 13C12.2261 13.4274 12.5725 13.7738 12.9999 13.7738C13.4272 13.7738 13.7737 13.4274 13.7737 13Z" fill="white"/>
<path d="M8.35701 13C8.35701 12.5726 8.01056 12.2262 7.5832 12.2262C7.15583 12.2262 6.80939 12.5726 6.80939 13C6.80939 13.4274 7.15583 13.7738 7.5832 13.7738C8.01056 13.7738 8.35701 13.4274 8.35701 13Z" fill="white"/>
<path d="M19.1903 13C19.1903 12.5726 18.8439 12.2262 18.4165 12.2262C17.9892 12.2262 17.6427 12.5726 17.6427 13C17.6427 13.4274 17.9892 13.7738 18.4165 13.7738C18.8439 13.7738 19.1903 13.4274 19.1903 13Z" fill="white"/>
<path d="M13.7737 13C13.7737 12.5726 13.4272 12.2262 12.9999 12.2262C12.5725 12.2262 12.2261 12.5726 12.2261 13C12.2261 13.4274 12.5725 13.7738 12.9999 13.7738C13.4272 13.7738 13.7737 13.4274 13.7737 13Z" stroke="white" stroke-width="1.5" stroke-linecap="round" stroke-linejoin="round"/>
<path d="M8.35701 13C8.35701 12.5726 8.01056 12.2262 7.5832 12.2262C7.15583 12.2262 6.80939 12.5726 6.80939 13C6.80939 13.4274 7.15583 13.7738 7.5832 13.7738C8.01056 13.7738 8.35701 13.4274 8.35701 13Z" stroke="white" stroke-width="1.5" stroke-linecap="round" stroke-linejoin="round"/>
<path d="M19.1903 13C19.1903 12.5726 18.8439 12.2262 18.4165 12.2262C17.9892 12.2262 17.6427 12.5726 17.6427 13C17.6427 13.4274 17.9892 13.7738 18.4165 13.7738C18.8439 13.7738 19.1903 13.4274 19.1903 13Z" stroke="white" stroke-width="1.5" stroke-linecap="round" stroke-linejoin="round"/>
</svg>
